<svg xmlns="http://www.w3.org/2000/svg" version="1.1" x="0" y="0" width="100" height="100" viewBox="0 0 100 100" enable-background="new 0 0 100 100" xml:space="preserve"><g display="none"><g display="inline"/><g display="inline"/></g><path fill="#000000" d="M55.354 35.401h5.632c0.433-1.139 1.533-1.954 2.828-1.954h11.542c-0.081-0.458-0.17-0.915-0.268-1.366H62.585C59.177 32.081 56.766 33.199 55.354 35.401zM51.75 35.401c1.737-4.214 5.473-6.54 10.835-6.54h11.618C69.836 15.602 57.359 6.027 42.637 6.027c-17.06 0-31.109 12.854-33.011 29.403 0.098-0.008 0.191-0.029 0.291-0.029H51.75zM63.813 49.74c-1.415 0-2.597-0.973-2.931-2.278h-5.733c1.38 2.419 3.861 3.644 7.436 3.644h11.11 1.985V49.74H74.18 63.813zM72.264 54.325h-9.679c-5.496 0-9.284-2.446-10.962-6.863H26.555 15.559h-5.139c1.587 6.256 4.951 11.8 9.519 16.072v4.229 26.209h39.964V77.767h14.072c0.943 0 1.706-0.765 1.706-1.707V54.645v-0.319h-1.153H72.264zM75.293 36.667h-7.394c0.526 0.62 0.855 1.411 0.855 2.285v4.961c0 1.034-0.453 1.959-1.162 2.608h7.478 0.61 1.478 0.38v-2.157 -7.696h-1.775H75.293zM90.669 24.702l-9.366 4.748c-0.203 0.094-0.411 0.221-0.545 0.321v5.203 15.385 3.716c0.141 0.106 0.351 0.231 0.474 0.287l9.438 4.781c0.067-0.061 0.111-0.148 0.111-0.246V24.948C90.78 24.851 90.736 24.762 90.669 24.702zM26.555 44.242h24.266 3.253 6.708 1.61 1.609 1.201c0.183 0 0.332-0.148 0.332-0.33v-4.961c0-0.182-0.149-0.33-0.332-0.33h-1.201 -1.609 -1.61 -6.653 -3.265H26.555 9.916c-0.182 0-0.331 0.148-0.331 0.33v2.538 1.296 1.127c0 0.122 0.078 0.209 0.177 0.267 0.048 0.028 0.093 0.063 0.153 0.063h2.422H26.555z"/></svg>