<svg xmlns="http://www.w3.org/2000/svg" xmlns:xlink="http://www.w3.org/1999/xlink" version="1.1" id="Your_Icon" x="0px" y="0px" width="100px" height="100px" viewBox="0 0 100 100" enable-background="new 0 0 100 100" xml:space="preserve">
<g>
	<g>
		<g>
			<g>
			</g>
		</g>
		<g>
		</g>
	</g>
</g>
<path d="M41.467,52.469c0,0-8.886-1.238-14.421-1.53c-5.536-0.292-11.654-0.364-11.945-0.583c-0.291-0.218-0.364-0.947-0.655-0.801  c-1.457,2.841-3.205,2.769-4.442,2.112c-1.238-0.655-1.093-3.059-0.437-3.423c-0.947-0.073-1.56-0.412-1.967-0.729  c-0.655-0.51-2.04-1.748-2.549-2.331c-0.509-0.583-0.364-1.748,1.093-2.694c1.456-0.947,7.138-4.588,11.653-4.37  c4.516,0.218,21.85,6.409,23.889,6.773c2.04,0.364,9.905,1.894,9.905,1.894s36.926-23.162,38.02-23.745  c1.093-0.582,1.603-0.437,2.477-0.291c0.874,0.145,3.058,1.165,2.403,1.748c-0.655,0.583-31.465,24.764-31.465,24.764  s8.086,1.967,10.124,1.967c2.04,0,3.933,0.146,5.899,0.948c1.968,0.8,1.749,1.018,3.06,1.019c1.311,0,2.331,0.364,2.331,0.364  l0.146,1.311c0,0,4.007,2.187,4.517,2.478c0.146,1.165-0.511,1.819-0.511,1.819l-2.477,0.583l9.104,6.92  c0,0-5.899-0.073-6.992-0.729c-1.092-0.655-6.118-4.952-6.118-4.952l-0.364,7.575c0,0-1.748-0.074-2.913-0.365  s-1.748-0.509-1.748-0.509l-0.364,0.072l-4.662,9.614l-6.555-1.239l8.521-16.824c0,0-8.011-1.674-12.018-2.693  c-4.006-1.021-6.263-1.238-6.555-1.312s-0.583-0.146-0.583-0.146s-31.61,13.838-34.014,13.329c-2.84-0.875-2.84-0.875-2.84-0.875  l0.146-0.728C18.16,66.891,39.646,54.872,41.467,52.469z"/>
</svg>