<svg xmlns="http://www.w3.org/2000/svg" xmlns:xlink="http://www.w3.org/1999/xlink" version="1.1" id="Layer_1" x="0px" y="0px" width="100px" height="100px" viewBox="0 0 100 100" enable-background="new 0 0 100 100" xml:space="preserve">
<g>
	<path d="M87.483,18.08H68.842H29.82H12.343C5.526,18.08,0,23.605,0,30.423v49.981c0,6.816,5.526,12.342,12.343,12.342h75.14   c6.816,0,12.343-5.525,12.343-12.342V30.423C99.826,23.605,94.3,18.08,87.483,18.08z"/>
	<path d="M65.8,0H34.027c-6.936,0-12.559,5.623-12.559,12.559v4.216h8v-0.823c0-4.84,3.924-8.764,8.765-8.764h22.175   c4.84,0,8.765,3.924,8.765,8.764v0.823h9.186v-4.216C78.358,5.623,72.735,0,65.8,0z"/>
</g>
</svg>