<svg xmlns="http://www.w3.org/2000/svg" xmlns:xlink="http://www.w3.org/1999/xlink" version="1.1" id="Layer_1" x="0px" y="0px" width="100px" height="100px" viewBox="0 0 100 100" enable-background="new 0 0 100 100" xml:space="preserve">
<g>
	<path d="M3.63,56.218c-0.417-0.976-0.782-2.083-1.086-3.321c0.136-0.532,0.36-1.023,0.655-1.472   c0.299,1.525,0.688,2.858,1.142,4.009C4.075,55.677,3.836,55.938,3.63,56.218L3.63,56.218z M2.008,50.135   c-0.218-1.463-0.357-3.062-0.407-4.793c0.251-0.446,0.57-0.853,0.938-1.214c0.008,1.816,0.112,3.485,0.298,5.006   C2.516,49.441,2.234,49.777,2.008,50.135L2.008,50.135z M98.518,45.436c-0.05,1.724-0.195,3.314-0.412,4.771   c-0.235-0.385-0.533-0.745-0.874-1.072c0.188-1.521,0.292-3.189,0.298-5.006C97.922,44.515,98.259,44.952,98.518,45.436   L98.518,45.436z M97.551,53.007c-0.304,1.212-0.667,2.298-1.079,3.258c-0.213-0.296-0.464-0.575-0.745-0.831   c0.453-1.15,0.842-2.483,1.142-4.009c0.312,0.474,0.547,0.999,0.677,1.565L97.551,53.007L97.551,53.007z M15.57,57.033   c0.998-0.246,2.364,0.051,3.534,0.854c1.639,1.125,2.272,2.821,1.418,3.786c-0.087,0.098-0.187,0.184-0.296,0.262   c1.648,2.15,1.944,4.485,0.607,5.405c-1.021,0.7-2.72,0.389-4.345-0.653c-2.232,1.588-5.562,1.638-8.002-0.04   c-2.021-1.389-3.704-5.281-3.719-8.265c-0.087-0.131-0.174-0.269-0.257-0.411c0.179-0.3,0.389-0.578,0.623-0.836   c0.142,0.258,0.287,0.499,0.436,0.728l0.153,0.235l0.002,0.28c0.014,2.773,1.617,6.321,3.304,7.481   c2.12,1.457,5.011,1.399,6.909,0.05l0.525-0.377l0.544,0.352c1.553,0.994,2.774,1.021,3.288,0.669   c0.528-0.363,0.833-1.873-0.826-4.038l-0.61-0.797l0.827-0.57c0.05-0.033,0.09-0.07,0.123-0.108   c0.208-0.231,0.334-1.282-1.244-2.365c-1.008-0.691-2.096-0.882-2.764-0.715l-0.212,0.054l-0.217-0.044   c-5.272-1.126-5.807-18.036,5.274-19.995c4.816-0.852,8.687-0.438,11.727,0.762c1.054-3.861,1.678-8.566,1.678-13.656   c0-2.836-0.193-5.561-0.55-8.09c-2.971,0.55-5.07,1.684-6.828,2.95c-1,0.719-1.884,1.478-2.743,2.193   c-0.875,0.729-1.771,1.455-2.743,2.056c-8.47,5.232-13.077,6.381-15.646,7.896c-1.674,0.988-2.357,2.047-2.726,5.993   c-0.396,0.306-0.748,0.646-1.042,1.015c0.741-10.472,3.033-5.908,18.911-15.716c4.158-2.568,7.042-7.748,17.059-7.69   c0.066,2.424,3.114,21.048,12.317,20.994c9.203,0.054,12.253-18.57,12.32-20.994c10.015-0.058,12.896,5.122,17.055,7.69   C95.354,33.21,97.618,28.6,98.355,39.17c-0.306-0.398-0.681-0.765-1.106-1.091c-0.367-3.946-1.048-5.005-2.723-5.993   c-2.57-1.516-7.176-2.664-15.646-7.896c-0.975-0.601-1.868-1.327-2.742-2.056c-0.862-0.716-1.746-1.475-2.744-2.193   c-1.758-1.267-3.86-2.4-6.827-2.95c-0.357,2.529-0.551,5.254-0.551,8.09c0,5.09,0.624,9.795,1.679,13.656   c3.04-1.199,6.908-1.613,11.726-0.762c11.081,1.959,10.546,18.869,5.273,19.995l-0.215,0.044l-0.216-0.054   c-0.664-0.167-1.753,0.023-2.762,0.715c-1.578,1.083-1.451,2.134-1.244,2.365c0.033,0.038,0.075,0.075,0.122,0.108l0.83,0.57   l-0.611,0.797c-1.661,2.165-1.355,3.675-0.826,4.038c0.513,0.353,1.735,0.325,3.288-0.669l0.545-0.352l0.526,0.377   c1.894,1.35,4.788,1.407,6.906-0.05c1.687-1.16,3.288-4.708,3.307-7.481v-0.28l0.153-0.235c0.148-0.229,0.294-0.47,0.437-0.728   c0.246,0.272,0.463,0.564,0.648,0.882c-0.075,0.127-0.149,0.248-0.229,0.365c-0.014,2.983-1.698,6.876-3.717,8.265   c-2.442,1.678-5.77,1.628-8.007,0.04c-1.624,1.042-3.324,1.354-4.344,0.653c-1.336-0.92-1.038-3.255,0.611-5.405   c-0.112-0.078-0.213-0.164-0.298-0.262c-0.854-0.965-0.223-2.661,1.418-3.786c1.17-0.804,2.537-1.101,3.533-0.854   c3.684-0.785,5.386-16.239-5.241-18.118c-18.791-3.324-21.626,13.392-18.276,15.722c25.399,17.659,4.882,27.977,4.685,30.191   c-0.199,2.21,8.78,2.88,11.811,5.405c4.148,3.458-4.893,3.862-8.784,1.986c-3.892-1.872-2.609-2.721-10.266-4.425   c-1.063-0.393-1.7-1.209-0.655-2.229c19.266-18.815-7.763-19.531-7.763-19.531s-27.025,0.716-7.762,19.531   c1.047,1.02,0.406,1.836-0.656,2.229c-7.656,1.704-6.374,2.553-10.267,4.425c-3.89,1.876-12.931,1.472-8.781-1.986   c3.027-2.525,12.008-3.195,11.81-5.405c-0.199-2.215-20.713-12.532,4.686-30.191c3.349-2.33,0.514-19.046-18.277-15.722   C10.186,40.794,11.889,56.248,15.57,57.033L15.57,57.033z M51.375,49.41l0.012,0.231c0.706,0.246,1.267,0.472,1.688,0.677   c0.414,0.205,0.736,0.412,0.969,0.624c0.23,0.211,0.474,0.513,0.72,0.903c0.247,0.393,0.535,0.932,0.864,1.617l0.23-0.01   c0.257-0.718,0.487-1.286,0.692-1.7c0.208-0.414,0.413-0.74,0.62-0.971c0.211-0.238,0.515-0.479,0.909-0.722   c0.391-0.251,0.923-0.534,1.6-0.854l-0.014-0.231c-0.7-0.246-1.259-0.473-1.673-0.678c-0.42-0.205-0.748-0.412-0.986-0.623   c-0.229-0.211-0.47-0.512-0.716-0.904c-0.249-0.392-0.537-0.93-0.866-1.616l-0.232,0.014c-0.255,0.715-0.483,1.282-0.687,1.696   c-0.207,0.416-0.417,0.741-0.626,0.974c-0.213,0.234-0.519,0.477-0.909,0.724C52.576,48.808,52.044,49.091,51.375,49.41   L51.375,49.41z M40.473,49.041l-0.008,0.231c0.681,0.307,1.222,0.581,1.621,0.817c0.396,0.246,0.699,0.479,0.91,0.71   c0.215,0.229,0.429,0.553,0.641,0.965c0.213,0.41,0.452,0.973,0.718,1.685l0.232,0.008c0.318-0.693,0.599-1.235,0.839-1.63   c0.241-0.399,0.474-0.703,0.7-0.919c0.23-0.215,0.554-0.43,0.969-0.639c0.412-0.211,0.968-0.448,1.668-0.707l0.008-0.232   c-0.676-0.308-1.212-0.58-1.608-0.821c-0.399-0.241-0.708-0.477-0.927-0.706c-0.212-0.231-0.423-0.552-0.636-0.964   c-0.212-0.412-0.454-0.973-0.723-1.686l-0.232-0.009c-0.316,0.692-0.593,1.236-0.833,1.632c-0.241,0.396-0.478,0.701-0.707,0.917   c-0.234,0.213-0.557,0.428-0.968,0.641C41.721,48.546,41.167,48.781,40.473,49.041L40.473,49.041z M95.41,48.426   c1.825,0.948,2.974,2.517,2.825,4.186c-0.021,0.249-0.058,0.49-0.144,0.724c0,0-0.197-2.73-3.251-4.325   c0,0-0.555-0.322-0.148-0.608C94.998,48.187,95.41,48.426,95.41,48.426L95.41,48.426z M7.545,49.312c0,0,0.41-0.24,0.716-0.024   c0.409,0.287-0.146,0.609-0.146,0.609c-3.055,1.591-3.249,4.325-3.249,4.325C4.778,53.989,4.74,53.747,4.718,53.5   C4.572,51.829,5.72,50.262,7.545,49.312L7.545,49.312z M6.071,54.811c0,0,0.41-0.243,0.718-0.025   c0.408,0.285-0.147,0.607-0.147,0.607c-3.055,1.592-3.25,4.327-3.25,4.327c-0.086-0.234-0.124-0.474-0.146-0.724   C3.099,57.325,4.247,55.755,6.071,54.811L6.071,54.811z M4.108,37.824c0,0,0.411-0.241,0.717-0.025   c0.408,0.287-0.146,0.609-0.146,0.609c-3.054,1.59-3.249,4.324-3.249,4.324c-0.087-0.232-0.126-0.474-0.146-0.722   C1.136,40.341,2.283,38.771,4.108,37.824L4.108,37.824z M3.242,42.042c0,0,0.412-0.24,0.718-0.024   c0.407,0.287-0.147,0.609-0.147,0.609c-3.054,1.59-3.249,4.324-3.249,4.324c-0.087-0.231-0.126-0.475-0.146-0.723   C0.271,44.56,1.417,42.989,3.242,42.042L3.242,42.042z M6.13,42.929c0,0,0.411-0.239,0.717-0.024   c0.408,0.287-0.146,0.609-0.146,0.609c-3.056,1.59-3.251,4.323-3.251,4.323c-0.087-0.23-0.124-0.473-0.146-0.721   C3.157,45.445,4.305,43.877,6.13,42.929L6.13,42.929z M4.656,48.426c0,0,0.411-0.239,0.718-0.024   c0.408,0.286-0.146,0.608-0.146,0.608c-3.055,1.595-3.25,4.325-3.25,4.325c-0.087-0.233-0.125-0.475-0.146-0.724   C1.686,50.942,2.832,49.374,4.656,48.426L4.656,48.426z M92.524,49.312c1.823,0.949,2.969,2.517,2.825,4.188   c-0.021,0.247-0.063,0.489-0.148,0.723c0,0-0.195-2.734-3.249-4.325c0,0-0.558-0.322-0.147-0.609   C92.112,49.072,92.524,49.312,92.524,49.312L92.524,49.312z M93.996,54.811c1.827,0.944,2.973,2.515,2.827,4.186   c-0.024,0.25-0.063,0.489-0.148,0.724c0,0-0.195-2.735-3.249-4.327c0,0-0.556-0.322-0.147-0.607   C93.586,54.567,93.996,54.811,93.996,54.811L93.996,54.811z M95.959,37.824c1.822,0.946,2.973,2.517,2.827,4.187   c-0.024,0.248-0.06,0.489-0.148,0.722c0,0-0.195-2.734-3.249-4.324c0,0-0.556-0.322-0.146-0.609   C95.549,37.583,95.959,37.824,95.959,37.824L95.959,37.824z M96.825,42.042c1.826,0.947,2.971,2.518,2.826,4.187   c-0.021,0.248-0.061,0.491-0.147,0.723c0,0-0.195-2.734-3.249-4.324c0,0-0.555-0.322-0.148-0.609   C96.413,41.802,96.825,42.042,96.825,42.042L96.825,42.042z M93.938,42.929c1.823,0.948,2.972,2.517,2.823,4.188   c-0.02,0.248-0.06,0.49-0.144,0.721c0,0-0.195-2.733-3.249-4.323c0,0-0.559-0.322-0.148-0.609   C93.524,42.689,93.938,42.929,93.938,42.929L93.938,42.929z M49.996,27.81c2.209,0.041,4.57,1.321,5.145-1.133   c0.509-2.182-2.522-3.732-0.919-3.838c3.646,0.112,4.756-2.99,4.58-5.696c-0.149-2.353,0.038-2.454-1.153-1.944   c-0.647,0.25-0.904,0.394-1.437,0.573c-2.527,0.855-5.557-1.12-5.869,3.085c-0.061,0.246-0.157,0.458-0.347,0.453   c-0.188,0.005-0.285-0.207-0.347-0.453c-0.312-4.205-3.34-2.229-5.867-3.085c-0.533-0.18-0.79-0.323-1.437-0.573   c-1.191-0.51-1.003-0.408-1.155,1.944c-0.174,2.706,0.937,5.809,4.583,5.696c1.603,0.105-1.43,1.656-0.921,3.838   C45.428,29.131,47.787,27.851,49.996,27.81L49.996,27.81z M55.336,13.569l0.01,0.053c0.172,0.027,0.31,0.057,0.414,0.087   c0.101,0.03,0.186,0.064,0.247,0.104c0.063,0.039,0.128,0.098,0.203,0.178c0.069,0.079,0.158,0.191,0.261,0.334l0.051-0.012   c0.031-0.175,0.063-0.313,0.091-0.416c0.029-0.104,0.065-0.186,0.103-0.248c0.039-0.062,0.097-0.129,0.18-0.201   c0.079-0.071,0.191-0.159,0.331-0.259l-0.014-0.052c-0.17-0.029-0.306-0.058-0.408-0.089c-0.104-0.029-0.189-0.063-0.251-0.102   c-0.061-0.04-0.128-0.099-0.201-0.179c-0.072-0.079-0.157-0.19-0.262-0.334l-0.054,0.012c-0.029,0.175-0.059,0.313-0.089,0.416   c-0.029,0.104-0.062,0.186-0.103,0.248c-0.041,0.062-0.101,0.13-0.18,0.201C55.585,13.384,55.477,13.47,55.336,13.569   L55.336,13.569z M52.799,13.898l0.008,0.054c0.168,0.045,0.3,0.089,0.401,0.13c0.099,0.04,0.177,0.083,0.234,0.128   c0.057,0.045,0.118,0.111,0.182,0.197c0.062,0.087,0.138,0.207,0.227,0.361l0.052-0.007c0.049-0.17,0.092-0.305,0.136-0.405   c0.037-0.099,0.081-0.178,0.126-0.234c0.046-0.058,0.108-0.119,0.197-0.183c0.085-0.063,0.205-0.138,0.357-0.223l-0.006-0.053   c-0.168-0.046-0.298-0.089-0.396-0.131c-0.103-0.041-0.182-0.083-0.241-0.128c-0.057-0.046-0.116-0.111-0.182-0.198   c-0.062-0.086-0.138-0.206-0.225-0.359l-0.055,0.007c-0.048,0.169-0.091,0.305-0.129,0.404c-0.043,0.099-0.085,0.178-0.132,0.235   c-0.045,0.058-0.112,0.119-0.197,0.182C53.069,13.74,52.949,13.813,52.799,13.898L52.799,13.898z M50.3,14.047l0.004,0.055   c0.162,0.057,0.292,0.108,0.391,0.157c0.095,0.048,0.17,0.096,0.223,0.145c0.054,0.049,0.112,0.119,0.168,0.21   c0.058,0.091,0.126,0.216,0.199,0.375l0.056-0.003c0.061-0.166,0.112-0.297,0.161-0.394c0.048-0.097,0.095-0.173,0.143-0.227   c0.049-0.055,0.12-0.11,0.213-0.167c0.089-0.059,0.213-0.124,0.371-0.198l-0.002-0.054c-0.166-0.057-0.296-0.109-0.391-0.157   c-0.097-0.048-0.172-0.096-0.229-0.145c-0.055-0.049-0.108-0.119-0.165-0.209c-0.06-0.092-0.127-0.217-0.201-0.376l-0.056,0.004   c-0.058,0.166-0.11,0.296-0.158,0.393c-0.049,0.097-0.097,0.172-0.144,0.227c-0.052,0.055-0.122,0.11-0.211,0.168   C50.576,13.908,50.454,13.974,50.3,14.047L50.3,14.047z M47.769,13.962l-0.002,0.054c0.157,0.071,0.283,0.135,0.376,0.19   c0.093,0.057,0.163,0.11,0.211,0.164c0.051,0.053,0.101,0.128,0.149,0.224s0.104,0.227,0.167,0.392l0.053,0.002   c0.075-0.161,0.14-0.287,0.196-0.38c0.055-0.092,0.109-0.162,0.162-0.212c0.054-0.05,0.128-0.099,0.224-0.148   c0.096-0.049,0.226-0.104,0.388-0.164l0.002-0.054c-0.157-0.071-0.281-0.135-0.373-0.191c-0.093-0.056-0.165-0.11-0.216-0.164   c-0.049-0.053-0.098-0.128-0.146-0.224c-0.05-0.096-0.106-0.226-0.168-0.391l-0.055-0.002c-0.073,0.16-0.137,0.287-0.193,0.379   c-0.056,0.093-0.11,0.162-0.163,0.212c-0.055,0.05-0.13,0.1-0.225,0.149C48.058,13.847,47.93,13.901,47.769,13.962L47.769,13.962z    M45.253,13.68l-0.006,0.053c0.15,0.085,0.271,0.159,0.357,0.223s0.153,0.125,0.197,0.182c0.045,0.058,0.088,0.137,0.128,0.236   c0.041,0.099,0.086,0.234,0.133,0.404l0.053,0.007c0.089-0.154,0.164-0.273,0.228-0.361c0.063-0.087,0.123-0.152,0.181-0.196   c0.057-0.045,0.137-0.089,0.236-0.129s0.234-0.084,0.4-0.13l0.007-0.054c-0.15-0.085-0.269-0.158-0.355-0.223   c-0.088-0.063-0.154-0.124-0.2-0.183c-0.044-0.057-0.086-0.135-0.128-0.234c-0.04-0.1-0.085-0.234-0.133-0.404l-0.054-0.008   c-0.086,0.154-0.162,0.274-0.226,0.361c-0.062,0.086-0.124,0.152-0.182,0.197c-0.059,0.045-0.138,0.088-0.237,0.129   C45.553,13.59,45.42,13.633,45.253,13.68L45.253,13.68z M42.771,13.196l-0.011,0.053c0.143,0.098,0.255,0.183,0.337,0.254   c0.081,0.071,0.141,0.137,0.181,0.197c0.039,0.062,0.074,0.144,0.106,0.245c0.032,0.104,0.064,0.241,0.097,0.415l0.052,0.012   c0.102-0.146,0.188-0.259,0.258-0.339c0.071-0.081,0.137-0.142,0.197-0.182c0.062-0.04,0.144-0.075,0.247-0.107   c0.103-0.031,0.238-0.063,0.41-0.095l0.012-0.052c-0.144-0.098-0.255-0.182-0.335-0.253c-0.082-0.071-0.144-0.138-0.184-0.198   c-0.039-0.062-0.074-0.145-0.107-0.246c-0.03-0.103-0.063-0.241-0.098-0.415l-0.052-0.011c-0.1,0.146-0.186,0.259-0.256,0.339   c-0.071,0.081-0.138,0.141-0.198,0.182c-0.062,0.04-0.146,0.074-0.247,0.107C43.075,13.134,42.939,13.165,42.771,13.196   L42.771,13.196z M50.043,6.936c4.753,0,7.767,1.981,9.188,5.328c-0.103-0.016-0.186-0.039-0.253-0.069s-0.14-0.081-0.219-0.151   c-0.083-0.07-0.184-0.17-0.304-0.3l-0.052,0.019c-0.008,0.177-0.02,0.318-0.035,0.424c-0.018,0.105-0.042,0.191-0.075,0.258   c-0.029,0.066-0.083,0.141-0.149,0.223c-0.071,0.081-0.172,0.181-0.298,0.297l0.02,0.051c0.171,0.006,0.312,0.019,0.418,0.035   c0.106,0.018,0.191,0.042,0.259,0.073c0.066,0.03,0.14,0.081,0.221,0.151c0.083,0.07,0.184,0.17,0.302,0.301l0.049-0.02   c0.01-0.177,0.024-0.317,0.04-0.424c0.018-0.106,0.039-0.192,0.073-0.258c0.027-0.065,0.08-0.14,0.149-0.223   c0.685,1.794,0.931,3.957,0.766,6.399c-0.396,5.894-4.555,11.348-10.13,11.348c-5.578,0-9.736-5.454-10.133-11.348   c-0.16-2.403,0.076-4.536,0.729-6.316c0.057,0.07,0.099,0.134,0.125,0.191c0.031,0.066,0.056,0.152,0.072,0.259   c0.017,0.105,0.031,0.247,0.038,0.423l0.05,0.019c0.12-0.13,0.222-0.229,0.303-0.3c0.081-0.069,0.155-0.121,0.22-0.151   c0.066-0.031,0.153-0.056,0.26-0.072c0.106-0.018,0.246-0.03,0.42-0.036l0.019-0.051c-0.128-0.116-0.227-0.216-0.297-0.297   c-0.071-0.082-0.121-0.156-0.154-0.223c-0.03-0.065-0.054-0.151-0.07-0.258c-0.018-0.105-0.03-0.248-0.039-0.424l-0.051-0.019   c-0.119,0.13-0.219,0.229-0.301,0.3s-0.155,0.121-0.221,0.151c-0.057,0.026-0.125,0.046-0.207,0.062   c1.413-3.374,4.431-5.373,9.204-5.373h0.033H50.043L50.043,6.936z M56.776,16.205c0.878-0.35,1.54-0.071,1.54,1.072   c0,2.607-1.155,4.737-3.923,4.743c-0.365,0-0.752-0.055-1.129-0.164l-0.953-0.275l0.381,0.916c0.158,0.381,0.071,0.821-0.276,1.131   l-0.684,0.607l0.892,0.212c1.36,0.327,2.118,0.929,1.768,2.146c-0.249,0.871-0.792,1.084-1.587,1.079   c-0.925-0.006-1.975-0.298-2.813-0.298c-0.836,0-1.887,0.292-2.811,0.298c-0.793,0.005-1.337-0.208-1.588-1.079   c-0.353-1.22,0.411-1.822,1.782-2.148l0.886-0.21l-0.677-0.607c-0.343-0.309-0.428-0.749-0.269-1.131l0.384-0.92l-0.958,0.278   c-0.378,0.11-0.768,0.166-1.135,0.166c-2.767-0.006-3.922-2.136-3.922-4.743c0-1.144,0.662-1.422,1.541-1.072   c0.795,0.317,1.577,0.417,2.396,0.427c1.576,0.006,3.209,0.944,3.332,2.521c0.005,0.058,0.007,0.115,0.007,0.175   c0,0.451-0.116,0.842-0.313,1.174l-0.566,0.956l1.083-0.248c0.31-0.071,0.604-0.094,0.83-0.095   c0.229,0.001,0.529,0.024,0.848,0.098l1.085,0.248l-0.57-0.957c-0.199-0.333-0.317-0.724-0.317-1.176   c0-0.06,0.004-0.117,0.008-0.175c0.122-1.576,1.757-2.515,3.333-2.521C55.196,16.622,55.978,16.522,56.776,16.205L56.776,16.205z    M45.607,17.427c-2.964-0.039-3.128-1.198-3.128-0.149s0.183,3.942,3.128,3.947c1.312,0,2.395-0.733,2.541-1.68   c-0.372-0.187-0.793-0.362-1.249-0.515c0.121,0.153,0.178,0.356,0.142,0.563c-0.023,0.13-0.08,0.245-0.159,0.338   c0.329,0.012,0.624-0.009,0.859-0.056c-0.212,0.301-0.782,0.463-1.448,0.376c-0.671-0.087-1.236-0.4-1.431-0.758   c0.226,0.107,0.51,0.204,0.83,0.278c-0.062-0.128-0.084-0.276-0.057-0.426c0.046-0.265,0.232-0.469,0.469-0.55   c-0.951-0.242-1.839-0.333-2.521-0.28c0.576-0.571,1.786-0.757,3.046-0.396c0.559,0.16,1.052,0.406,1.444,0.699   C47.776,18.017,46.785,17.427,45.607,17.427L45.607,17.427z M54.394,17.427c-1.174,0-2.158,0.585-2.464,1.383   c0.391-0.288,0.879-0.53,1.432-0.688c1.261-0.361,2.472-0.176,3.046,0.396c-0.685-0.053-1.572,0.038-2.523,0.28   c0.239,0.081,0.425,0.285,0.47,0.55c0.025,0.149,0.004,0.298-0.057,0.426c0.321-0.074,0.605-0.171,0.83-0.278   c-0.193,0.357-0.76,0.671-1.431,0.758c-0.666,0.087-1.236-0.075-1.449-0.376c0.236,0.047,0.53,0.067,0.859,0.056   c-0.08-0.093-0.134-0.208-0.157-0.338c-0.037-0.207,0.02-0.41,0.142-0.563c-0.451,0.151-0.869,0.325-1.238,0.51   c0.142,0.948,1.225,1.685,2.541,1.685c2.946-0.005,3.126-2.898,3.126-3.947S57.358,17.388,54.394,17.427L54.394,17.427z    M46.857,25.299c-1.047,0.337-0.594,2.09,0.453,1.753c0.318-0.103,0.678-0.172,1.066-0.218c-0.19-0.128-0.339-0.278-0.434-0.443   c0.521,0.188,1.245,0.304,2.046,0.304c0.817,0,1.558-0.121,2.082-0.315c-0.095,0.166-0.24,0.318-0.43,0.447   c0.408,0.046,0.785,0.117,1.124,0.226c1.046,0.337,1.501-1.416,0.452-1.753c-0.91-0.293-2.009-0.459-3.181-0.459   C48.867,24.84,47.769,25.006,46.857,25.299L46.857,25.299z M48.51,22.495c-0.278,0.077-0.44,0.194-0.457,0.322   c-0.04,0.337,0.261,0.386,0.646,0.401h2.609c0.385-0.016,0.685-0.064,0.644-0.401c-0.016-0.128-0.178-0.245-0.456-0.322   c-0.138-0.332-0.747-0.585-1.5-0.586C49.259,21.91,48.646,22.162,48.51,22.495L48.51,22.495z M47.149,25.913   c0.102-0.243,0.791-0.692,1.521-0.808c0.81-0.127,1.18,0.042,1.327,0.233c0.148-0.191,0.52-0.36,1.326-0.233   c0.744,0.117,1.444,0.581,1.527,0.82c-0.835-0.229-1.819-0.361-2.872-0.361C48.943,25.564,47.975,25.692,47.149,25.913   L47.149,25.913z"/>
</g>
</svg>