<svg xmlns:dc="http://purl.org/dc/elements/1.1/" xmlns:cc="http://creativecommons.org/ns#" xmlns:rdf="http://www.w3.org/1999/02/22-rdf-syntax-ns#" xmlns:svg="http://www.w3.org/2000/svg" xmlns="http://www.w3.org/2000/svg" xmlns:sodipodi="http://sodipodi.sourceforge.net/DTD/sodipodi-0.dtd" xmlns:inkscape="http://www.inkscape.org/namespaces/inkscape" width="100" height="100" id="svg2" version="1.1" inkscape:version="0.48.4 r9939" sodipodi:docname="New document 1">
  <defs id="defs4">
 <style id="style3055" type="text/css">
   
    .fil0 {fill:black}
   
  </style>

  
  
  
  
  
  
  
  
  
  
  
  
  
  
  
  
  
  
  
  
  
  
  
  
  
  
  
  
  
 </defs>
  <sodipodi:namedview id="base" pagecolor="#ffffff" bordercolor="#666666" borderopacity="1.0" inkscape:pageopacity="0.0" inkscape:pageshadow="2" inkscape:zoom="7.9195959" inkscape:cx="61.206931" inkscape:cy="41.51681" inkscape:document-units="px" inkscape:current-layer="layer1" showgrid="false" inkscape:window-width="1280" inkscape:window-height="961" inkscape:window-x="-8" inkscape:window-y="-8" inkscape:window-maximized="1"/>
  <metadata id="metadata7">
    <rdf:RDF>
      <cc:Work rdf:about="">
        <dc:format>image/svg+xml</dc:format>
        <dc:type rdf:resource="http://purl.org/dc/dcmitype/StillImage"/>
        <dc:title/>
      </cc:Work>
    </rdf:RDF>
  </metadata>
  <g inkscape:label="Layer 1" inkscape:groupmode="layer" id="layer1" transform="translate(0,-952.36218)">
    <polygon id="polygon3059" points="1122,685 1122,744 59,744 59,685 " class="fil0" style="fill:#000000;fill-rule:evenodd" transform="matrix(0.08466604,0,0,0.08471074,0.00470364,952.31673)"/>
    <polygon id="polygon3061" points="148,756 148,1122 89,1122 89,756 " class="fil0" style="fill:#000000;fill-rule:evenodd" transform="matrix(0.08466604,0,0,0.08471074,0.00470364,952.31673)"/>
    <path id="path3063" d="m 52.497648,1027.3704 0,13.9773 39.962371,0 0,-13.9773 -39.962371,0 z m 17.017874,2.0331 6.011289,0 c 0.507997,0 1.015993,0.4236 1.015993,1.0165 l 0,0 c 0,0.5083 -0.42333,1.0166 -1.015993,1.0166 l -6.011289,0 c -0.507996,0 -1.015992,-0.4236 -1.015992,-1.0166 l 0,0 c 0,-0.5082 0.42333,-1.0165 1.015992,-1.0165 z" class="fil0" inkscape:connector-curvature="0" style="fill:#000000;fill-rule:evenodd"/>
    <path id="path3065" d="m 92.460019,1016.358 -39.962371,0 0,9.9959 39.962371,0 0,-9.9959 z m -23.029163,2.0331 6.011289,0 c 0.507997,0 1.015993,0.4236 1.015993,1.0165 l 0,0 c 0,0.5083 -0.42333,1.0166 -1.015993,1.0166 l -6.011289,0 c -0.507996,0 -1.015992,-0.4236 -1.015992,-1.0166 l 0,0 c 0,-0.5082 0.42333,-1.0165 1.015992,-1.0165 z" class="fil0" inkscape:connector-curvature="0" style="fill:#000000;fill-rule:evenodd"/>
    <path id="path3067" d="m 22.52587,985.86218 19.981186,0 c 1.100658,0 2.031985,0.93182 2.031985,2.03306 l 0,13.97726 c 0,1.1013 -0.931327,2.0331 -2.031985,2.0331 l -8.466604,0 0,3.9814 4.995296,0 c 0.507996,0 1.015993,0.4235 1.015993,1.0165 l 0,0 c 0,0.5083 -0.423331,1.0165 -1.015993,1.0165 l -13.03857,0 c -0.507996,0 -1.015993,-0.4235 -1.015993,-1.0165 l 0,0 c 0,-0.5083 0.423331,-1.0165 1.015993,-1.0165 l 4.995296,0 0,-3.9814 -8.466604,0 c -1.100658,0 -2.031985,-0.9318 -2.031985,-2.0331 l 0,-13.97726 c 0,-1.10124 0.931327,-2.03306 2.031985,-2.03306 z m 0,2.03306 19.981186,0 0,13.97726 -19.981186,0 0,-13.97726 z" class="fil0" inkscape:connector-curvature="0" style="fill:#000000;fill-rule:evenodd"/>
    <path id="path3069" d="m 83.485419,989.84359 7.027281,0 0,19.99171 -7.027281,0 0,-19.99171 z m 1.523989,8.21694 3.979304,0 0,3.47317 -3.979304,0 0,-3.47317 z m 2.031985,-5.76033 c 0.84666,0 1.523988,0.67769 1.523988,1.52479 0,0.84711 -0.677328,1.5248 -1.523988,1.5248 -0.846661,0 -1.523989,-0.67769 -1.523989,-1.5248 0,-0.8471 0.677328,-1.52479 1.523989,-1.52479 z" class="fil0" inkscape:connector-curvature="0" style="fill:#000000;fill-rule:evenodd"/>
    <path id="path3071" d="m 76.034808,989.84359 7.027281,0 0,19.99171 -7.027281,0 0,-19.99171 z m 1.523988,8.21694 3.979304,0 0,3.47317 -3.979304,0 0,-3.47317 z m 2.031985,-5.76033 c 0.846661,0 1.523989,0.67769 1.523989,1.52479 0,0.84711 -0.677328,1.5248 -1.523989,1.5248 -0.84666,0 -1.523988,-0.67769 -1.523988,-1.5248 0,-0.8471 0.677328,-1.52479 1.523988,-1.52479 z" class="fil0" inkscape:connector-curvature="0" style="fill:#000000;fill-rule:evenodd"/>
    <polygon id="polygon3073" points="880,632 880,679 691,679 691,632 750,632 762,644 809,644 821,632 " class="fil0" style="fill:#000000;fill-rule:evenodd" transform="matrix(0.08466604,0,0,0.08471074,0.00470364,952.31673)"/>
    <polygon id="polygon3075" points="880,531 880,579 691,579 691,531 750,531 762,543 809,543 821,531 " class="fil0" style="fill:#000000;fill-rule:evenodd" transform="matrix(0.08466604,0,0,0.08471074,0.00470364,952.31673)"/>
    <polygon id="polygon3077" points="868,620 868,626 703,626 703,620 " class="fil0" style="fill:#000000;fill-rule:evenodd" transform="matrix(0.08466604,0,0,0.08471074,0.00470364,952.31673)"/>
    <polygon id="polygon3079" points="868,520 868,526 703,526 703,520 " class="fil0" style="fill:#000000;fill-rule:evenodd" transform="matrix(0.08466604,0,0,0.08471074,0.00470364,952.31673)"/>
    <polygon id="polygon3081" points="868,596 868,602 703,602 703,596 " class="fil0" style="fill:#000000;fill-rule:evenodd" transform="matrix(0.08466604,0,0,0.08471074,0.00470364,952.31673)"/>
    <polygon id="polygon3083" points="868,496 868,502 703,502 703,496 " class="fil0" style="fill:#000000;fill-rule:evenodd" transform="matrix(0.08466604,0,0,0.08471074,0.00470364,952.31673)"/>
    <polygon id="polygon3085" points="868,608 868,614 703,614 703,608 " class="fil0" style="fill:#000000;fill-rule:evenodd" transform="matrix(0.08466604,0,0,0.08471074,0.00470364,952.31673)"/>
    <polygon id="polygon3087" points="868,508 868,514 703,514 703,508 " class="fil0" style="fill:#000000;fill-rule:evenodd" transform="matrix(0.08466604,0,0,0.08471074,0.00470364,952.31673)"/>
    <polygon id="polygon3089" points="868,472 868,478 703,478 703,472 " class="fil0" style="fill:#000000;fill-rule:evenodd" transform="matrix(0.08466604,0,0,0.08471074,0.00470364,952.31673)"/>
    <polygon id="polygon3091" points="868,585 868,591 703,591 703,585 " class="fil0" style="fill:#000000;fill-rule:evenodd" transform="matrix(0.08466604,0,0,0.08471074,0.00470364,952.31673)"/>
    <polygon id="polygon3093" points="868,484 868,490 703,490 703,484 " class="fil0" style="fill:#000000;fill-rule:evenodd" transform="matrix(0.08466604,0,0,0.08471074,0.00470364,952.31673)"/>
    <polygon id="polygon3095" points="812,632 807,638 764,638 758,632 " class="fil0" style="fill:#000000;fill-rule:evenodd" transform="matrix(0.08466604,0,0,0.08471074,0.00470364,952.31673)"/>
    <polygon id="polygon3097" points="812,531 807,537 764,537 758,531 " class="fil0" style="fill:#000000;fill-rule:evenodd" transform="matrix(0.08466604,0,0,0.08471074,0.00470364,952.31673)"/>
    <polygon id="polygon3099" points="679,1063 679,1122 620,1122 620,1063 " class="fil0" style="fill:#000000;fill-rule:evenodd" transform="matrix(0.08466604,0,0,0.08471074,0.00470364,952.31673)"/>
    <polygon id="polygon3101" points="1092,1063 1092,1122 1033,1122 1033,1063 " class="fil0" style="fill:#000000;fill-rule:evenodd" transform="matrix(0.08466604,0,0,0.08471074,0.00470364,952.31673)"/>
    <polygon id="polygon3103" points="189,573 189,679 106,679 106,573 " class="fil0" style="fill:#000000;fill-rule:evenodd" transform="matrix(0.08466604,0,0,0.08471074,0.00470364,952.31673)"/>
    <path id="path3105" d="m 14.482596,1000.3477 2.116651,-4.57436 c 0.08467,-0.16942 0.338665,-0.25413 0.507997,-0.16942 l 0,0 c 0.169332,0.0847 0.253998,0.33884 0.169332,0.50826 l -1.947319,4.23552 -0.846661,0 z" class="fil0" inkscape:connector-curvature="0" style="fill:#000000;fill-rule:evenodd"/>
    <polygon id="polygon3107" points="161,500 184,506 168,567 143,567 " class="fil0" style="fill:#000000;fill-rule:evenodd" transform="matrix(0.08466604,0,0,0.08471074,0.00470364,952.31673)"/>
    <path id="path3109" d="m 11.095955,1000.3477 -1.4393228,-5.50618 c -0.084666,-0.25413 0.084666,-0.42355 0.2539981,-0.50826 l 0,0 c 0.2539977,-0.0847 0.4233307,0.0847 0.5079967,0.25413 l 1.523988,5.67561 -0.84666,0 z" class="fil0" inkscape:connector-curvature="0" style="fill:#000000;fill-rule:evenodd"/>
    <polygon id="polygon3111" points="102,521 129,567 115,567 92,526 " class="fil0" style="fill:#000000;fill-rule:evenodd" transform="matrix(0.08466604,0,0,0.08471074,0.00470364,952.31673)"/>
  </g>
</svg>