<svg xmlns="http://www.w3.org/2000/svg" xmlns:xlink="http://www.w3.org/1999/xlink" xml:space="preserve" width="100px" height="75px" style="shape-rendering:geometricPrecision; text-rendering:geometricPrecision; image-rendering:optimizeQuality; fill-rule:evenodd; clip-rule:evenodd" viewBox="0 0 160.947 120.373">
 <defs>
  <style type="text/css">
   
    .fil0 {fill:black}
   
  </style>
 </defs>
 <g id="Layer_x0020_1">
  <metadata id="CorelCorpID_0Corel-Layer"/>
  <path class="fil0" d="M77.8491 70.1581l0 35.7986c0,2.73203 -2.23521,4.96724 -4.96724,4.96724l0 0c-2.73203,0 -4.96724,-2.23521 -4.96724,-4.96724l0 -12.871 -55.6783 2.86436 0 24.4229 -12.2363 0 0 -51.0046 12.2363 0 0 10.2172 55.6783 3.70002 0 -13.1276c-3.80075,-1.76679 -6.42105,-5.49748 -6.42105,-9.81428 0,-0.170795 0.00480789,-0.340444 0.012821,-0.509407l-37.037 -17.6772c-1.5921,-0.760105 -2.26841,-2.68624 -1.5067,-4.27605l17.2809 -36.064c0.761936,-1.58981 2.68441,-2.26475 4.27673,-1.50487l100.937 48.1757 0.0112184 0.00503684c0.472776,0.210631 15.597,6.96228 15.4775,8.03559 -0.121342,1.09025 -5.69392,1.0298 -10.6612,1.87782 -4.9519,0.845273 -6.58818,2.52895 -6.61909,2.59672l-1.87233 3.90744c0.325334,-0.214981 0.752549,-0.259855 1.12802,-0.0801315l2.90717 1.39291c0.567789,0.271989 0.809557,0.958831 0.537568,1.52662l-6.75852 14.1059c-0.271989,0.568018 -0.958831,0.809786 -1.52662,0.537797l-2.90717 -1.39291c-0.375931,-0.180181 -0.608999,-0.541918 -0.644486,-0.930899l-4.31749 9.01022c-0.761707,1.58958 -2.68463,2.2652 -4.27673,1.5051l-45.781 -21.8505c-0.702181,0.558402 -1.47556,1.03759 -2.30527,1.42336zm-1.88698 -22.1195c2.94449,0 5.33149,2.387 5.33149,5.33149 0,2.94449 -2.387,5.33149 -5.33149,5.33149 -2.94449,0 -5.33149,-2.387 -5.33149,-5.33149 0,-2.94449 2.387,-5.33149 5.33149,-5.33149zm0 -2.42203c4.28223,0 7.75352,3.4713 7.75352,7.75352 0,4.28223 -3.4713,7.75352 -7.75352,7.75352 -4.28223,0 -7.75352,-3.4713 -7.75352,-7.75352 0,-4.28223 3.4713,-7.75352 7.75352,-7.75352z"/>
 </g>
</svg>