<svg xmlns="http://www.w3.org/2000/svg" xmlns:xlink="http://www.w3.org/1999/xlink" version="1.1" x="0px" y="0px" width="100px" height="100px" viewBox="0 0 100 100" enable-background="new 0 0 100 100" xml:space="preserve">
<g id="Captions">
</g>
<g id="Your_Icon">
	<path fill="#000000" d="M90.154,70.201c1.703-4.288,2.258-9.096,1.311-13.967c-2.637-13.556-15.768-22.409-29.328-19.77   c-0.611,0.118-1.211,0.259-1.801,0.419c0.184,2.418,0.043,4.876-0.434,7.32c-1.889,9.701-8.809,17.386-17.715,20.546   c0.053,0.347,0.111,0.692,0.178,1.039c2.639,13.56,15.771,22.412,29.326,19.773c5.088-0.989,9.51-3.458,12.916-6.868L100,83.259   L90.154,70.201z M74.617,65.054l-0.035,0.025l-7.773,5.867h-0.002l-7.729-5.878l-0.037-0.027c-1.33-1.015-2.191-2.616-2.191-4.42   c0-3.065,2.484-5.55,5.551-5.55c1.814,0,3.426,0.872,4.438,2.221c1.014-1.349,2.623-2.221,4.439-2.221   c3.066,0,5.551,2.484,5.551,5.55C76.828,62.433,75.961,64.041,74.617,65.054z"/>
	<path fill="#000000" d="M57.633,43.762c2.639-13.556-6.215-26.687-19.77-29.324c-13.561-2.64-26.691,6.214-29.328,19.771   c-0.949,4.87-0.393,9.678,1.311,13.967L0,61.231l15.393-4.564c3.406,3.41,7.828,5.879,12.916,6.869   C41.863,66.175,54.994,57.321,57.633,43.762z M34.889,44.845l-3.648-3.649l-11.631,6.979L31.262,33.19l3.65,3.649l11.631-6.979   L34.889,44.845z"/>
</g>
</svg>