<?xml version="1.0" encoding="utf-8"?>
<!-- Generator: Adobe Illustrator 16.0.0, SVG Export Plug-In . SVG Version: 6.00 Build 0)  -->
<!DOCTYPE svg PUBLIC "-//W3C//DTD SVG 1.1//EN" "http://www.w3.org/Graphics/SVG/1.1/DTD/svg11.dtd">
<svg version="1.1" id="Layer_1" xmlns="http://www.w3.org/2000/svg" xmlns:xlink="http://www.w3.org/1999/xlink" x="0px" y="0px"
	 width="57.486px" height="86.197px" viewBox="0 0 57.486 86.197" enable-background="new 0 0 57.486 86.197" xml:space="preserve">
<g id="Your_Icon">
	<polygon display="none" fill="#010101" points="77.763,2.863 77.763,1.883 -19.296,1.883 -19.296,-12.823 -20.276,-12.823 
		-20.276,1.883 -20.276,2.863 -20.276,4.824 -20.276,5.805 -20.276,7.766 -20.276,8.746 -20.276,12.667 -20.276,13.648 
		-20.276,15.608 -20.276,16.589 -20.276,18.55 -20.276,19.53 -20.276,27.373 -20.276,28.354 -20.276,34.236 -20.276,35.216 
		-20.276,37.177 -20.276,38.158 -20.276,40.119 -20.276,41.099 -20.276,48.942 -22.237,48.942 -22.237,49.922 -20.276,49.922 
		-20.276,51.883 -21.257,51.883 -21.257,52.864 -20.276,52.864 -20.276,54.825 -20.276,55.804 -20.276,62.667 -20.276,63.648 
		-20.276,65.609 -20.276,66.589 -20.276,68.549 -20.276,69.53 -20.276,71.491 -20.276,72.471 -20.276,74.432 -20.276,75.413 
		-20.276,79.334 -20.276,80.315 -20.276,82.275 -20.276,83.255 -20.276,85.216 -19.296,85.216 -19.296,83.255 77.763,83.255 
		77.763,82.275 -19.296,82.275 -19.296,80.315 77.763,80.315 77.763,79.334 -19.296,79.334 -19.296,75.413 77.763,75.413 
		77.763,74.432 -19.296,74.432 -19.296,72.471 77.763,72.471 77.763,71.491 -19.296,71.491 -19.296,69.53 77.763,69.53 
		77.763,68.549 -19.296,68.549 -19.296,66.589 77.763,66.589 77.763,65.609 -19.296,65.609 -19.296,63.648 77.763,63.648 
		77.763,62.667 -19.296,62.667 -19.296,55.804 77.763,55.804 77.763,54.825 -19.296,54.825 -19.296,52.864 76.782,52.864 
		76.782,51.883 -19.296,51.883 -19.296,49.922 75.802,49.922 75.802,48.942 -19.296,48.942 -19.296,41.099 77.763,41.099 
		77.763,40.119 -19.296,40.119 -19.296,38.158 77.763,38.158 77.763,37.177 -19.296,37.177 -19.296,35.216 77.763,35.216 
		77.763,34.236 -19.296,34.236 -19.296,28.354 77.763,28.354 77.763,27.373 -19.296,27.373 -19.296,19.53 77.763,19.53 
		77.763,18.55 -19.296,18.55 -19.296,16.589 77.763,16.589 77.763,15.608 -19.296,15.608 -19.296,13.648 77.763,13.648 
		77.763,12.667 -19.296,12.667 -19.296,8.746 77.763,8.746 77.763,7.766 -19.296,7.766 -19.296,5.805 77.763,5.805 77.763,4.824 
		-19.296,4.824 -19.296,2.863 	"/>
	<polygon display="none" fill="#010101" points="77.763,2.863 77.763,1.883 -19.296,1.883 -19.296,-12.823 -20.276,-12.823 
		-20.276,1.883 -20.276,2.863 -20.276,4.824 -20.276,5.805 -20.276,7.766 -20.276,8.746 -20.276,12.667 -20.276,13.648 
		-20.276,15.608 -20.276,16.589 -20.276,18.55 -20.276,19.53 -20.276,27.373 -20.276,28.354 -20.276,34.236 -20.276,35.216 
		-20.276,37.177 -20.276,38.158 -20.276,40.119 -20.276,41.099 -20.276,48.942 -22.237,48.942 -22.237,49.922 -20.276,49.922 
		-20.276,51.883 -21.257,51.883 -21.257,52.864 -20.276,52.864 -20.276,54.825 -20.276,55.804 -20.276,62.667 -20.276,63.648 
		-20.276,65.609 -20.276,66.589 -20.276,68.549 -20.276,69.53 -20.276,71.491 -20.276,72.471 -20.276,74.432 -20.276,75.413 
		-20.276,79.334 -20.276,80.315 -20.276,82.275 -20.276,83.255 -20.276,85.216 -19.296,85.216 -19.296,83.255 77.763,83.255 
		77.763,82.275 -19.296,82.275 -19.296,80.315 77.763,80.315 77.763,79.334 -19.296,79.334 -19.296,75.413 77.763,75.413 
		77.763,74.432 -19.296,74.432 -19.296,72.471 77.763,72.471 77.763,71.491 -19.296,71.491 -19.296,69.53 77.763,69.53 
		77.763,68.549 -19.296,68.549 -19.296,66.589 77.763,66.589 77.763,65.609 -19.296,65.609 -19.296,63.648 77.763,63.648 
		77.763,62.667 -19.296,62.667 -19.296,55.804 77.763,55.804 77.763,54.825 -19.296,54.825 -19.296,52.864 76.782,52.864 
		76.782,51.883 -19.296,51.883 -19.296,49.922 75.802,49.922 75.802,48.942 -19.296,48.942 -19.296,41.099 77.763,41.099 
		77.763,40.119 -19.296,40.119 -19.296,38.158 77.763,38.158 77.763,37.177 -19.296,37.177 -19.296,35.216 77.763,35.216 
		77.763,34.236 -19.296,34.236 -19.296,28.354 77.763,28.354 77.763,27.373 -19.296,27.373 -19.296,19.53 77.763,19.53 
		77.763,18.55 -19.296,18.55 -19.296,16.589 77.763,16.589 77.763,15.608 -19.296,15.608 -19.296,13.648 77.763,13.648 
		77.763,12.667 -19.296,12.667 -19.296,8.746 77.763,8.746 77.763,7.766 -19.296,7.766 -19.296,5.805 77.763,5.805 77.763,4.824 
		-19.296,4.824 -19.296,2.863 	"/>
	<polygon display="none" fill="#010101" points="77.763,2.863 77.763,1.883 -19.296,1.883 -19.296,-12.823 -20.276,-12.823 
		-20.276,1.883 -20.276,2.863 -20.276,4.824 -20.276,5.805 -20.276,7.766 -20.276,8.746 -20.276,12.667 -20.276,13.648 
		-20.276,15.608 -20.276,16.589 -20.276,18.55 -20.276,19.53 -20.276,27.373 -20.276,28.354 -20.276,34.236 -20.276,35.216 
		-20.276,37.177 -20.276,38.158 -20.276,40.119 -20.276,41.099 -20.276,48.942 -22.237,48.942 -22.237,49.922 -20.276,49.922 
		-20.276,51.883 -21.257,51.883 -21.257,52.864 -20.276,52.864 -20.276,54.825 -20.276,55.804 -20.276,62.667 -20.276,63.648 
		-20.276,65.609 -20.276,66.589 -20.276,68.549 -20.276,69.53 -20.276,71.491 -20.276,72.471 -20.276,74.432 -20.276,75.413 
		-20.276,79.334 -20.276,80.315 -20.276,82.275 -20.276,83.255 -20.276,85.216 -19.296,85.216 -19.296,83.255 77.763,83.255 
		77.763,82.275 -19.296,82.275 -19.296,80.315 77.763,80.315 77.763,79.334 -19.296,79.334 -19.296,75.413 77.763,75.413 
		77.763,74.432 -19.296,74.432 -19.296,72.471 77.763,72.471 77.763,71.491 -19.296,71.491 -19.296,69.53 77.763,69.53 
		77.763,68.549 -19.296,68.549 -19.296,66.589 77.763,66.589 77.763,65.609 -19.296,65.609 -19.296,63.648 77.763,63.648 
		77.763,62.667 -19.296,62.667 -19.296,55.804 77.763,55.804 77.763,54.825 -19.296,54.825 -19.296,52.864 76.782,52.864 
		76.782,51.883 -19.296,51.883 -19.296,49.922 75.802,49.922 75.802,48.942 -19.296,48.942 -19.296,41.099 77.763,41.099 
		77.763,40.119 -19.296,40.119 -19.296,38.158 77.763,38.158 77.763,37.177 -19.296,37.177 -19.296,35.216 77.763,35.216 
		77.763,34.236 -19.296,34.236 -19.296,28.354 77.763,28.354 77.763,27.373 -19.296,27.373 -19.296,19.53 77.763,19.53 
		77.763,18.55 -19.296,18.55 -19.296,16.589 77.763,16.589 77.763,15.608 -19.296,15.608 -19.296,13.648 77.763,13.648 
		77.763,12.667 -19.296,12.667 -19.296,8.746 77.763,8.746 77.763,7.766 -19.296,7.766 -19.296,5.805 77.763,5.805 77.763,4.824 
		-19.296,4.824 -19.296,2.863 	"/>
	<polygon display="none" fill="#010101" points="77.763,2.863 77.763,1.883 -19.296,1.883 -19.296,-12.823 -20.276,-12.823 
		-20.276,1.883 -20.276,2.863 -20.276,4.824 -20.276,5.805 -20.276,7.766 -20.276,8.746 -20.276,12.667 -20.276,13.648 
		-20.276,15.608 -20.276,16.589 -20.276,18.55 -20.276,19.53 -20.276,27.373 -20.276,28.354 -20.276,34.236 -20.276,35.216 
		-20.276,37.177 -20.276,38.158 -20.276,40.119 -20.276,41.099 -20.276,48.942 -22.237,48.942 -22.237,49.922 -20.276,49.922 
		-20.276,51.883 -21.257,51.883 -21.257,52.864 -20.276,52.864 -20.276,54.825 -20.276,55.804 -20.276,62.667 -20.276,63.648 
		-20.276,65.609 -20.276,66.589 -20.276,68.549 -20.276,69.53 -20.276,71.491 -20.276,72.471 -20.276,74.432 -20.276,75.413 
		-20.276,79.334 -20.276,80.315 -20.276,82.275 -20.276,83.255 -20.276,85.216 -19.296,85.216 -19.296,83.255 77.763,83.255 
		77.763,82.275 -19.296,82.275 -19.296,80.315 77.763,80.315 77.763,79.334 -19.296,79.334 -19.296,75.413 77.763,75.413 
		77.763,74.432 -19.296,74.432 -19.296,72.471 77.763,72.471 77.763,71.491 -19.296,71.491 -19.296,69.53 77.763,69.53 
		77.763,68.549 -19.296,68.549 -19.296,66.589 77.763,66.589 77.763,65.609 -19.296,65.609 -19.296,63.648 77.763,63.648 
		77.763,62.667 -19.296,62.667 -19.296,55.804 77.763,55.804 77.763,54.825 -19.296,54.825 -19.296,52.864 76.782,52.864 
		76.782,51.883 -19.296,51.883 -19.296,49.922 75.802,49.922 75.802,48.942 -19.296,48.942 -19.296,41.099 77.763,41.099 
		77.763,40.119 -19.296,40.119 -19.296,38.158 77.763,38.158 77.763,37.177 -19.296,37.177 -19.296,35.216 77.763,35.216 
		77.763,34.236 -19.296,34.236 -19.296,28.354 77.763,28.354 77.763,27.373 -19.296,27.373 -19.296,19.53 77.763,19.53 
		77.763,18.55 -19.296,18.55 -19.296,16.589 77.763,16.589 77.763,15.608 -19.296,15.608 -19.296,13.648 77.763,13.648 
		77.763,12.667 -19.296,12.667 -19.296,8.746 77.763,8.746 77.763,7.766 -19.296,7.766 -19.296,5.805 77.763,5.805 77.763,4.824 
		-19.296,4.824 -19.296,2.863 	"/>
	<path fill="#010101" d="M33.2,10.707h-9.398c0.92,1.001,2.151,1.706,3.544,1.961h2.312C31.051,12.413,32.279,11.708,33.2,10.707z"
		/>
	<path fill="#010101" d="M34.89,6.389c0-0.542-0.074-1.062-0.201-1.565H22.312c-0.126,0.502-0.201,1.023-0.201,1.565
		c0,0.134,0.012,0.265,0.021,0.396h12.737C34.878,6.654,34.89,6.522,34.89,6.389z"/>
	<path fill="#010101" d="M34.359,3.844c-0.32-0.735-0.771-1.4-1.329-1.96h-9.057c-0.558,0.561-1.01,1.225-1.33,1.96H34.359z"/>
	<path fill="#010101" d="M33.94,9.726c0.367-0.596,0.642-1.256,0.796-1.96H22.265c0.155,0.705,0.43,1.365,0.796,1.96H33.94z"/>
	<path fill="#010101" d="M31.763,0.903C30.808,0.333,29.694,0,28.502,0c-1.194,0-2.307,0.333-3.263,0.903H31.763z"/>
	<rect x="31.685" y="48.942" fill="#010101" width="6.862" height="1.961"/>
	<path fill="#010101" d="M44.43,40.119h-4.902v1.941c0,0.006,0,0.013,0,0.02h4.9c0-0.007,0.002-0.014,0.002-0.02V40.119z"/>
	<rect x="19.919" y="28.354" fill="#010101" width="15.686" height="1.961"/>
	<path fill="#010101" d="M43.306,43.059h-4.713c0.354,1.245,1.353,1.88,2.358,1.88C41.961,44.939,42.955,44.304,43.306,43.059z"/>
	<rect x="29.724" y="46" fill="#010101" width="6.862" height="1.961"/>
	<rect x="20.9" y="25.413" fill="#010101" width="15.686" height="1.96"/>
	<rect x="38.547" y="37.177" fill="#010101" width="4.902" height="1.961"/>
	<rect x="21.88" y="40.119" fill="#010101" width="15.686" height="1.961"/>
	<rect x="20.9" y="37.177" fill="#010101" width="15.686" height="1.961"/>
	<rect x="20.9" y="34.236" fill="#010101" width="15.686" height="1.961"/>
	<rect x="20.9" y="31.295" fill="#010101" width="15.686" height="1.961"/>
	<rect x="29.724" y="63.648" fill="#010101" width="6.862" height="1.961"/>
	<rect x="28.743" y="72.471" fill="#010101" width="6.862" height="1.961"/>
	<path fill="#010101" d="M36.798,75.413h-7.032c0.14,0.768,0.522,1.447,1.067,1.961h4.897C36.276,76.86,36.658,76.18,36.798,75.413z
		"/>
	<path fill="#010101" d="M28.048,75.413h-7.035c0.14,0.768,0.523,1.447,1.069,1.961h4.899C27.525,76.86,27.908,76.18,28.048,75.413z
		"/>
	<path fill="#010101" d="M19.919,42.06v-0.054v-1.888h-4.902v1.888v0.054c0,0.006,0.28,0.013,0.28,0.02h4.622
		C19.919,42.073,19.919,42.066,19.919,42.06z"/>
	<rect x="29.724" y="69.53" fill="#010101" width="6.862" height="1.961"/>
	<rect x="28.743" y="60.707" fill="#010101" width="6.862" height="1.961"/>
	<rect x="29.724" y="57.765" fill="#010101" width="6.862" height="1.961"/>
	<rect x="30.704" y="54.825" fill="#010101" width="6.862" height="1.96"/>
	<rect x="38.547" y="34.236" fill="#010101" width="4.902" height="1.961"/>
	<rect x="30.704" y="66.589" fill="#010101" width="6.862" height="1.96"/>
	<rect x="30.704" y="51.883" fill="#010101" width="6.862" height="1.961"/>
	<rect x="20.9" y="57.765" fill="#010101" width="6.863" height="1.961"/>
	<rect x="22.861" y="48.942" fill="#010101" width="6.863" height="1.961"/>
	<rect x="21.88" y="51.883" fill="#010101" width="6.863" height="1.961"/>
	<rect x="21.88" y="54.825" fill="#010101" width="6.863" height="1.96"/>
	<rect x="20.9" y="46" fill="#010101" width="6.863" height="1.961"/>
	<polygon fill="#010101" points="27.763,45.02 29.724,45.02 29.724,45.02 36.586,45.02 36.586,43.059 20.9,43.059 20.9,45.02 	"/>
	<rect x="38.547" y="31.295" fill="#010101" width="4.902" height="1.961"/>
	<rect x="20.9" y="69.53" fill="#010101" width="6.863" height="1.961"/>
	<rect x="19.919" y="72.471" fill="#010101" width="6.863" height="1.961"/>
	<rect x="19.919" y="60.707" fill="#010101" width="6.863" height="1.961"/>
	<rect x="20.9" y="63.648" fill="#010101" width="6.863" height="1.961"/>
	<rect x="21.88" y="66.589" fill="#010101" width="6.863" height="1.96"/>
	<path fill="#010101" d="M16.833,44.918c1.012,0,2.014-0.628,2.371-1.859h-4.742C14.819,44.292,15.82,44.918,16.833,44.918z"/>
	<path fill="#010101" d="M42.658,18.55c-0.308-0.715-0.705-1.375-1.191-1.961h-25.22c-0.479,0.578-0.875,1.238-1.183,1.961H42.658z"
		/>
	<path fill="#010101" d="M45.354,21.491c-0.063-0.669-0.188-1.328-0.38-1.96H16.68c-0.183,0.622-0.309,1.277-0.365,1.96H45.354z"/>
	<path fill="#010101" d="M40.477,15.608c-1.158-0.93-2.651-1.499-4.484-1.499l-14.32-0.006c-1.753,0-3.247,0.559-4.426,1.505H40.477
		z"/>
	<rect x="14.037" y="37.177" fill="#010101" width="4.902" height="1.961"/>
	<rect x="37.566" y="28.354" fill="#010101" width="4.902" height="1.961"/>
	<rect x="38.547" y="25.413" fill="#010101" width="4.902" height="1.96"/>
	<rect x="14.037" y="31.295" fill="#010101" width="4.902" height="1.961"/>
	<rect x="14.037" y="34.236" fill="#010101" width="4.902" height="1.961"/>
	<rect x="14.037" y="25.413" fill="#010101" width="4.902" height="1.96"/>
	<path fill="#010101" d="M19.919,24.432v-0.98h1.961v0.98h15.686v-0.98h1.961v0.98h4.902v-1.87v-0.052
		c0-0.013-0.001-0.025-0.002-0.04h-29.41v1.961H19.919z"/>
	<rect x="13.057" y="28.354" fill="#010101" width="4.902" height="1.961"/>
	<polygon fill="#010101" points="4.172,39.138 3.799,37.177 2.801,37.177 3.174,39.138 	"/>
	<polygon fill="#010101" points="3.613,36.197 3.239,34.236 2.241,34.236 2.615,36.197 	"/>
	<polygon fill="#010101" points="4.733,42.08 4.359,40.119 3.361,40.119 3.734,42.08 	"/>
	<polygon fill="#010101" points="5.853,47.961 5.479,46 4.481,46 4.854,47.961 	"/>
	<polygon fill="#010101" points="5.293,45.02 4.92,43.059 3.922,43.059 4.295,45.02 	"/>
	<polygon fill="#010101" points="1.931,27.373 1.558,25.413 0.56,25.413 0.933,27.373 	"/>
	<polygon fill="#010101" points="3.052,33.256 2.678,31.295 1.68,31.295 2.054,33.256 	"/>
	<polygon fill="#010101" points="1.372,24.432 0.998,22.471 0,22.471 0.374,24.432 	"/>
	<polygon fill="#010101" points="2.492,30.314 2.118,28.354 1.121,28.354 1.494,30.314 	"/>
	<polygon fill="#010101" points="6.414,50.903 6.04,48.942 5.042,48.942 5.416,50.903 	"/>
	<polygon fill="#010101" points="6.974,53.844 6.6,51.883 5.602,51.883 5.975,53.844 	"/>
	<polygon fill="#010101" points="11.456,77.374 11.082,75.413 10.084,75.413 10.458,77.374 	"/>
	<polygon fill="#010101" points="7.535,56.785 7.161,54.825 6.163,54.825 6.536,56.785 	"/>
	<polygon fill="#010101" points="10.335,71.491 9.961,69.53 8.964,69.53 9.337,71.491 	"/>
	<polygon fill="#010101" points="12.016,80.315 11.642,78.354 10.644,78.354 11.018,80.315 	"/>
	<polygon fill="#010101" points="10.895,74.432 10.521,72.471 9.523,72.471 9.897,74.432 	"/>
	<polygon fill="#010101" points="8.655,62.667 8.28,60.707 7.282,60.707 7.656,62.667 	"/>
	<polygon fill="#010101" points="8.094,59.726 7.721,57.765 6.723,57.765 7.096,59.726 	"/>
	<polygon fill="#010101" points="9.774,68.549 9.401,66.589 8.403,66.589 8.776,68.549 	"/>
	<polygon fill="#010101" points="9.215,65.609 8.841,63.648 7.843,63.648 8.217,65.609 	"/>
	<polygon fill="#010101" points="53.191,45.02 53.565,43.059 52.567,43.059 52.194,45.02 	"/>
	<polygon fill="#010101" points="54.873,36.197 55.246,34.236 54.249,34.236 53.874,36.197 	"/>
	<polygon fill="#010101" points="54.312,39.138 54.686,37.177 53.688,37.177 53.314,39.138 	"/>
	<polygon fill="#010101" points="55.434,33.256 55.806,31.295 54.808,31.295 54.435,33.256 	"/>
	<polygon fill="#010101" points="53.752,42.08 54.126,40.119 53.128,40.119 52.754,42.08 	"/>
	<polygon fill="#010101" points="55.993,30.314 56.366,28.354 55.368,28.354 54.993,30.314 	"/>
	<polygon fill="#010101" points="52.632,47.961 53.005,46 52.006,46 51.633,47.961 	"/>
	<polygon fill="#010101" points="57.113,24.432 57.486,22.471 56.489,22.471 56.115,24.432 	"/>
	<polygon fill="#010101" points="56.553,27.373 56.927,25.413 55.928,25.413 55.555,27.373 	"/>
	<polygon fill="#010101" points="47.029,77.374 47.403,75.413 46.405,75.413 46.031,77.374 	"/>
	<polygon fill="#010101" points="48.149,71.491 48.523,69.53 47.524,69.53 47.15,71.491 	"/>
	<polygon fill="#010101" points="49.271,65.609 49.644,63.648 48.646,63.648 48.272,65.609 	"/>
	<polygon fill="#010101" points="52.071,50.903 52.445,48.942 51.446,48.942 51.072,50.903 	"/>
	<polygon fill="#010101" points="46.469,80.315 46.842,78.354 45.845,78.354 45.471,80.315 	"/>
	<polygon fill="#010101" points="47.591,74.432 47.962,72.471 46.965,72.471 46.591,74.432 	"/>
	<polygon fill="#010101" points="48.71,68.549 49.083,66.589 48.085,66.589 47.711,68.549 	"/>
	<polygon fill="#010101" points="50.951,56.785 51.324,54.825 50.327,54.825 49.953,56.785 	"/>
	<polygon fill="#010101" points="49.83,62.667 50.204,60.707 49.206,60.707 48.832,62.667 	"/>
	<polygon fill="#010101" points="51.513,53.844 51.884,51.883 50.886,51.883 50.513,53.844 	"/>
	<polygon fill="#010101" points="50.391,59.726 50.764,57.765 49.766,57.765 49.393,59.726 	"/>
	<path fill="#010101" d="M47.37,81.294H10.116l-3.922,4.902h45.098L47.37,81.294z M15.018,84.236c-0.541,0-0.98-0.438-0.98-0.98
		s0.439-0.98,0.98-0.98s0.98,0.438,0.98,0.98S15.559,84.236,15.018,84.236z M17.959,85.216c-0.541,0-0.98-0.438-0.98-0.98
		s0.439-0.98,0.98-0.98c0.541,0,0.98,0.438,0.98,0.98S18.5,85.216,17.959,85.216z M36.586,85.216H20.9v-2.941h15.686V85.216z
		 M39.527,85.216c-0.542,0-0.98-0.438-0.98-0.98s0.438-0.98,0.98-0.98s0.98,0.438,0.98,0.98S40.069,85.216,39.527,85.216z
		 M42.469,84.236c-0.542,0-0.98-0.438-0.98-0.98s0.438-0.98,0.98-0.98s0.98,0.438,0.98,0.98S43.011,84.236,42.469,84.236z"/>
</g>
</svg>
