<svg xmlns="http://www.w3.org/2000/svg" xmlns:xlink="http://www.w3.org/1999/xlink" version="1.1" x="0px" y="0px" width="100px" height="100px" viewBox="0 0 100 100" enable-background="new 0 0 100 100" xml:space="preserve">
<g id="Layer_1">
</g>
<g id="Isolation_Mode">
	<path d="M94.078,41.762c1.787-13.531-3.702-29.744-19.914-37.02C61.345-1.011,38.719-1.001,26.785,9.878   c-10.408,9.49-12.754,22.959-12.754,22.959s-1.074,5.004-1.074,6.665c0,1.588,1.788,2.213,1.583,3.029   c-0.204,0.816-2.207,3.151-3.738,5.703c-1.53,2.551-5.443,8.222-5.443,9.752s0.916,2.097,2.753,2.709   c1.836,0.612,3.265,1.122,3.571,1.836s-0.875,2.754-0.938,4.209c-0.054,1.241,0.4,1.379,1.33,1.74   c1.153,0.449,2.923,0.507,2.923,0.507s-3.943,0.745-3.551,2.359c0.406,1.675,2.781,2.015,2.992,3.327   c0.105,0.662-2.008,4.053-1.73,7.354c0.363,4.308,4.444,6.236,10.914,5.198c6.167-0.99,9.067-1.91,9.86,1.491   c0.499,2.141,0.446,5.753,1.364,9.836c0.038,0.163,0.077,0.338,0.114,0.51h47.327c-2.024-3.689-4.685-9.61-4.685-17.144   c0-5.169,0.514-12.842,4.221-16.923C86.471,59.879,92.643,52.634,94.078,41.762z M74.537,52.486c0,0-0.619,6.769-5.588,7.639   c-4.255,0.744-7.08-3.354-7.08-3.354l-1.398,6.613h-2.979c0,0-2.701-9.966-4.564-11.644c-1.864-1.677-4.752-2.142-4.752-2.142   s-3.912-0.28-6.428-2.794c-2.515-2.516-0.186-5.59-0.186-5.59s-3.167,0.187-9.595-1.21c-6.427-1.398-4.471-5.497-4.471-5.497   s-1.677,0.28-3.074-1.49c-0.993-1.258-1.717-4.335,0.093-7.918c1.622-3.209,4.469-4.323,4.469-4.323s-1.054-1.338,1.169-3.207   c1.161-0.976,3.211-0.947,3.211-0.947s0.501-2.151,3.587-3.546c3.496-1.579,5.822-0.273,5.822-0.273s0.934-2.046,3.635-2.978   c2.702-0.931,5.4,0.649,5.4,0.649s1.828-1.653,5.182-1.653c3.353,0,4.601,1.747,4.601,1.747s2.02-1.038,4.471-0.187   c2.316,0.805,2.986,3.05,2.986,3.05s1.673-1.187,4-0.255c2.329,0.932,3.262,3.447,3.262,3.447s1.605-0.235,3.202,1.183   c1.185,1.054,0.802,3.009,0.802,3.009s1.976,0.656,3.158,3.021c1.101,2.201-0.456,4.059-0.456,4.059s3.26,2.422,3.726,8.756   c0.568,7.728-4.377,9.222-4.377,9.222s0.978,2.452-0.746,5.123C79.273,54.631,74.537,52.486,74.537,52.486z"/>
</g>
</svg>